# xmcd
#
# Track frame offsets:
#	150
#	20576
#	41174
#	54101
#	83503
#	100558
#	115190
#	127433
#	139590
#	152483
#	172386
#	193600
#	213666
#	233568
#	251993
#	272828
#	289216
#
# Disc length: 4089 seconds
# Revision: 0
# Processed by: cddbd v1.5.2PL0 Copyright (c) Steve Scherf et al.
# Submitted via: dBpowerAMP V12.0
#
DISCID=f80ff711
DTITLE=Death - Human
DYEAR=1991
DGENRE=Metal
TTITLE0=See Through Dreams w/ Paul and Sean - Human Rehearsal - January 1991
TTITLE1=See Through Dreams (Take 2) w/ Paul and Sean - Human Rehearsal - January 1991
TTITLE2=Secret Face - w/o Paul - 1/2 song - Human Rehearsal - January 1991
TTITLE3=Secret Face (Take 2) - w/o Paul - Human Rehearsal - January 1991
TTITLE4=Secret Face - Riffs - Human Rehearsal - January 1991
TTITLE5=Flattening of Emotions - Riffs - Human Rehearsal - January 1991
TTITLE6=Lack of Comprehension - Riffs - Human Rehearsal - January 1991
TTITLE7=Lack of Comprehension (Take 2) - Riffs - Human Rehearsal - January 1991
TTITLE8=Cosmic Sea - Riffs w/ Drum Machine - Human Rehearsal - January 1991
TTITLE9=See Through Dreams - Human Rehearsal - August 1990
TTITLE10=Suicide Machine - Human Rehearsal - August 1990
TTITLE11=Together as One - Human Rehearsal - August 1990
TTITLE12=Suicide Machine - Human - Drum and Bass Tracks
TTITLE13=Together as One - Human - Drum and Bass Tracks
TTITLE14=Secret Face - Human - Drum and Bass Tracks
TTITLE15=Lack of Comprehension - Human - Drum and Bass Tracks
TTITLE16=Vacant Planets - Human - Drum and Bass Tracks
EXTD=
EXTT0=
EXTT1=
EXTT2=
EXTT3=
EXTT4=
EXTT5=
EXTT6=
EXTT7=
EXTT8=
EXTT9=
EXTT10=
EXTT11=
EXTT12=
EXTT13=
EXTT14=
EXTT15=
EXTT16=
PLAYORDER=
